<svg xmlns="http://www.w3.org/2000/svg" width="35" height="35" viewBox="230 5031.95 35 35"><g data-name="004-google-plus"><g data-name="Group 40"><path d="M230 5049.4a17.5 17.5 0 1 1 0 .1z" fill="#dc4e41" fill-rule="evenodd" data-name="XMLID_30_"/></g><g data-name="Group 42"><path d="M235.774 5050.28c-.063 3.098 2.071 6.055 5.007 7.02 2.766.93 6.166.234 8.007-2.134 1.343-1.66 1.649-3.873 1.503-5.94-2.368-.02-4.737-.014-7.102-.01-.004.844 0 1.684.004 2.528 1.418.04 2.836.021 4.254.05-.358 1.226-1.173 2.368-2.41 2.811-2.39 1.053-5.44-.322-6.192-2.83-.907-2.4.579-5.297 3.032-5.995 1.521-.535 3.088.067 4.39.858a33.587 33.587 0 0 0 1.883-1.943c-1.48-1.238-3.38-1.996-5.333-1.83-3.833.046-7.188 3.585-7.043 7.414Z" fill="#dc4e41" fill-rule="evenodd" data-name="Path 21"/><path d="M254.9 5047.088c-.006.705-.014 1.415-.017 2.12-.71.007-1.415.01-2.12.014v2.114c.705.003 1.414.007 2.12.014.007.706.007 1.411.014 2.12.702 0 1.408-.003 2.113 0 .004-.709.007-1.414.015-2.124l2.12-.01v-2.113c-.705-.004-1.415-.007-2.12-.015l-.015-2.12h-2.11Z" fill="#dc4e41" fill-rule="evenodd" data-name="Path 22"/><g data-name="Group 41"><path d="M235.774 5050.28c-.145-3.83 3.21-7.369 7.042-7.415 1.954-.167 3.855.592 5.333 1.83a33.696 33.696 0 0 1-1.882 1.943c-1.302-.791-2.87-1.394-4.39-.859-2.454.7-3.94 3.596-3.032 5.996.752 2.507 3.801 3.883 6.19 2.83 1.238-.443 2.054-1.585 2.412-2.812-1.418-.028-2.836-.01-4.255-.05-.003-.843-.007-1.684-.003-2.527 2.365-.004 4.733-.011 7.102.01.145 2.067-.16 4.28-1.504 5.94-1.84 2.368-5.24 3.063-8.006 2.134-2.936-.965-5.07-3.922-5.007-7.02Z" fill="#fff" fill-rule="evenodd" data-name="Path 23"/><path d="M254.9 5047.088h2.11l.015 2.12c.705.007 1.414.01 2.12.014v2.114l-2.12.01c-.007.71-.011 1.415-.015 2.124-.705-.004-1.411 0-2.113 0-.007-.71-.007-1.415-.014-2.12-.706-.008-1.415-.011-2.12-.015v-2.113c.705-.004 1.41-.007 2.12-.014.003-.705.01-1.415.018-2.12Z" fill="#fff" fill-rule="evenodd" data-name="Path 24"/></g></g></g></svg>