<svg xmlns="http://www.w3.org/2000/svg" width="16.043" height="16.075" viewBox="966 4961.5 16.043 16.075"><path d="M983.043 4974.535v2.42a1.613 1.613 0 0 1-1.759 1.613 15.963 15.963 0 0 1-6.961-2.476 15.73 15.73 0 0 1-4.84-4.84 15.963 15.963 0 0 1-2.476-6.994 1.613 1.613 0 0 1 1.605-1.758h2.42c.81-.008 1.5.586 1.613 1.387.102.775.292 1.535.565 2.267.221.59.08 1.254-.363 1.702l-1.025 1.025a12.906 12.906 0 0 0 4.84 4.84l1.025-1.025a1.613 1.613 0 0 1 1.702-.363c.731.273 1.492.462 2.266.565a1.613 1.613 0 0 1 1.388 1.637Z" stroke-linejoin="round" stroke-linecap="round" stroke-width="2" stroke="#5863f8" fill="transparent" data-name="phone"/></svg>