<svg xmlns="http://www.w3.org/2000/svg" width="35" height="35" viewBox="184.401 5031.95 35 35"><g data-name="002-twitter"><path d="M184.4 5049.4a17.5 17.5 0 1 1 0 .1z" fill="#55acee" fill-rule="evenodd" data-name="Ellipse 16"/><g data-name="Group 39"><path d="M212.598 5044.594a8.326 8.326 0 0 1-2.397.657 4.185 4.185 0 0 0 1.836-2.309c-.807.479-1.7.826-2.65 1.013a4.174 4.174 0 0 0-7.112 3.807 11.847 11.847 0 0 1-8.602-4.361 4.173 4.173 0 0 0 1.291 5.572 4.144 4.144 0 0 1-1.89-.523v.053a4.176 4.176 0 0 0 3.347 4.092 4.159 4.159 0 0 1-1.884.072 4.178 4.178 0 0 0 3.898 2.898 8.373 8.373 0 0 1-6.178 1.728 11.805 11.805 0 0 0 6.397 1.875c7.676 0 11.874-6.359 11.874-11.874 0-.18-.004-.361-.012-.54a8.463 8.463 0 0 0 2.082-2.16Z" fill="#f1f2f2" fill-rule="evenodd" data-name="Path 17"/></g></g></svg>